<svg width="134" height="48" viewBox="0 0 134 48" fill="none" xmlns="http://www.w3.org/2000/svg">
<g id="Layer_1">
<g id="Group">
<path id="Vector" d="M62.4232 2.99497C63.8848 2.99497 65.2798 3.56273 66.3855 4.49955C66.5136 4.6273 66.5326 4.82128 66.3997 4.95376L65.3937 6.00413C65.2656 6.13188 65.1185 6.13188 64.9714 6.00413C64.2739 5.38905 63.415 5.06259 62.5229 5.06259C60.4919 5.06259 58.8881 6.79428 58.8881 8.81931C58.8881 10.8443 60.4967 12.524 62.5419 12.524C63.4529 12.524 64.1505 12.2496 64.4732 12.1171V10.7403H63.173C62.9927 10.7403 62.8645 10.6125 62.8645 10.4516V9.17417C62.8645 8.99437 62.9927 8.86663 63.173 8.86663H66.2906C66.4519 8.86663 66.58 9.0133 66.58 9.17417V13.3189C66.58 13.4466 66.5136 13.5271 66.4519 13.5791C66.4519 13.5791 64.7816 14.6295 62.428 14.6295C59.1965 14.6295 56.6009 12.0698 56.6009 8.83351C56.6009 5.59723 59.1965 2.99023 62.428 2.99023" fill="#07485A"/>
<path id="Vector_2" d="M69.4556 3.46339C69.4556 3.30253 69.5837 3.15585 69.7641 3.15585H71.2588C71.4201 3.15585 71.5672 3.30253 71.5672 3.46339V12.5429H75.705C75.8854 12.5429 76.0135 12.6896 76.0135 12.8505V14.18C76.0135 14.3409 75.8854 14.4875 75.705 14.4875H69.7641C69.5837 14.4875 69.4556 14.3409 69.4556 14.18V3.46339Z" fill="#07485A"/>
<path id="Vector_3" d="M83.0411 2.99496C86.2868 2.99496 88.8824 5.60196 88.8824 8.83824C88.8824 12.0745 86.2868 14.6484 83.0411 14.6484C79.7954 14.6484 77.214 12.0745 77.214 8.83824C77.214 5.60196 79.7954 2.99496 83.0411 2.99496ZM83.0411 12.5477C85.0863 12.5477 86.7755 10.8822 86.7755 8.84297C86.7755 6.80374 85.0863 5.10517 83.0411 5.10517C80.9959 5.10517 79.3256 6.80374 79.3256 8.84297C79.3256 10.8822 80.9959 12.5477 83.0411 12.5477Z" fill="#07485A"/>
<path id="Vector_4" d="M91.497 3.46339C91.497 3.30253 91.6251 3.15585 91.8055 3.15585H95.5209C97.4522 3.15585 98.9469 4.45226 98.9469 6.15083C98.9469 7.39518 97.9267 8.36985 97.1628 8.72471C98.0216 8.99913 99.2744 9.87443 99.2744 11.3648C99.2744 13.1769 97.718 14.4875 95.7345 14.4875H91.8055C91.6251 14.4875 91.497 14.3409 91.497 14.18V3.46339ZM95.3264 7.91564C96.152 7.91564 96.7215 7.26744 96.7215 6.45837C96.7215 5.6493 96.152 5.08153 95.3264 5.08153H93.5896V7.91564H95.3264ZM95.5541 12.5761C96.3656 12.5761 97.0157 11.9468 97.0157 11.1046C97.0157 10.2624 96.2042 9.69464 95.3596 9.69464H93.5896V12.5761H95.5541Z" fill="#07485A"/>
<path id="Vector_5" d="M100.522 14.0664L105.571 3.17476C105.619 3.0754 105.699 2.99496 105.846 2.99496H106.008C106.169 2.99496 106.236 3.0754 106.283 3.17476L111.28 14.0664C111.379 14.2793 111.246 14.4875 111.004 14.4875H109.59C109.348 14.4875 109.235 14.3882 109.121 14.1658L108.323 12.4199H103.469L102.672 14.1658C102.605 14.3267 102.458 14.4875 102.202 14.4875H100.788C100.546 14.4875 100.413 14.2746 100.513 14.0664M107.531 10.6172L105.908 7.0545H105.861L104.271 10.6172H107.536H107.531Z" fill="#07485A"/>
<path id="Vector_6" d="M113.249 3.46339C113.249 3.30253 113.377 3.15585 113.557 3.15585H115.052C115.213 3.15585 115.361 3.30253 115.361 3.46339V12.5429H119.498C119.679 12.5429 119.807 12.6896 119.807 12.8505V14.18C119.807 14.3409 119.679 14.4875 119.498 14.4875H113.557C113.377 14.4875 113.249 14.3409 113.249 14.18V3.46339Z" fill="#07485A"/>
<path id="Vector_7" d="M56.6768 28.0761L57.2605 27.073C57.3886 26.8459 57.6638 26.8459 57.8109 26.9595C57.8916 27.0068 59.206 27.9625 60.2642 27.9625C61.1088 27.9625 61.7399 27.4137 61.7399 26.7182C61.7399 25.8949 61.0424 25.3271 59.6805 24.7736C58.1526 24.1585 56.6294 23.1886 56.6294 21.2771C56.6294 19.834 57.7018 18.1685 60.2832 18.1685C61.9392 18.1685 63.2062 19.0107 63.5289 19.252C63.6902 19.3514 63.7424 19.6258 63.6285 19.7867L63.0116 20.7093C62.8835 20.9033 62.6368 21.031 62.4422 20.9033C62.3141 20.8229 61.0804 20.0138 60.1883 20.0138C59.2962 20.0138 58.76 20.6289 58.76 21.1446C58.76 21.9063 59.3626 22.4221 60.677 22.9567C62.2524 23.586 64.0698 24.5275 64.0698 26.6141C64.0698 28.2795 62.6273 29.8172 60.3354 29.8172C58.2902 29.8172 57.0896 28.8615 56.767 28.554C56.6199 28.4073 56.5392 28.3269 56.6863 28.0666" fill="#07485A"/>
<path id="Vector_8" d="M71.6574 18.1733C73.2992 18.1733 74.4808 18.6937 75.5864 19.6779C75.7335 19.8056 75.7335 19.9996 75.6007 20.1321L74.6089 21.1493C74.495 21.2771 74.3337 21.2771 74.2056 21.1493C73.5223 20.5484 72.6159 20.1936 71.7049 20.1936C69.6265 20.1936 68.0843 21.9253 68.0843 23.9645C68.0843 26.0037 69.6407 27.7023 71.7191 27.7023C72.6919 27.7023 73.5223 27.3285 74.2008 26.7797C74.329 26.6661 74.5093 26.6803 74.6042 26.7797L75.6102 27.8159C75.7383 27.9294 75.7098 28.1423 75.5959 28.2512C74.4903 29.3204 73.0952 29.822 71.6527 29.822C68.407 29.822 65.7924 27.2481 65.7924 24.0118C65.7924 20.7755 68.407 18.1685 71.6527 18.1685" fill="#07485A"/>
<path id="Vector_9" d="M78.2152 18.6417C78.2152 18.4808 78.3623 18.3342 78.5236 18.3342H80.0326C80.2129 18.3342 80.3411 18.4808 80.3411 18.6417V22.9331H85.6319V18.6417C85.6319 18.4808 85.7601 18.3342 85.9404 18.3342H87.4351C87.5964 18.3342 87.7435 18.4808 87.7435 18.6417V29.3583C87.7435 29.5192 87.5964 29.6659 87.4351 29.6659H85.9404C85.7601 29.6659 85.6319 29.5192 85.6319 29.3583V24.8919H80.3411V29.3583C80.3411 29.5192 80.2129 29.6659 80.0326 29.6659H78.5236C78.3623 29.6659 78.2152 29.5192 78.2152 29.3583V18.6417Z" fill="#07485A"/>
<path id="Vector_10" d="M96.1995 18.1733C99.4452 18.1733 102.041 20.7803 102.041 24.0166C102.041 27.2528 99.4452 29.8267 96.1995 29.8267C92.9538 29.8267 90.3724 27.2528 90.3724 24.0166C90.3724 20.7803 92.9538 18.1733 96.1995 18.1733ZM96.1995 27.7212C98.2446 27.7212 99.9339 26.0558 99.9339 24.0166C99.9339 21.9773 98.2446 20.2787 96.1995 20.2787C94.1543 20.2787 92.484 21.9773 92.484 24.0166C92.484 26.0558 94.1543 27.7212 96.1995 27.7212Z" fill="#07485A"/>
<path id="Vector_11" d="M109.671 18.1733C112.917 18.1733 115.512 20.7803 115.512 24.0166C115.512 27.2528 112.917 29.8267 109.671 29.8267C106.425 29.8267 103.844 27.2528 103.844 24.0166C103.844 20.7803 106.425 18.1733 109.671 18.1733ZM109.671 27.7212C111.716 27.7212 113.406 26.0558 113.406 24.0166C113.406 21.9773 111.716 20.2787 109.671 20.2787C107.626 20.2787 105.956 21.9773 105.956 24.0166C105.956 26.0558 107.626 27.7212 109.671 27.7212Z" fill="#07485A"/>
<path id="Vector_12" d="M118.127 18.6417C118.127 18.4808 118.255 18.3342 118.435 18.3342H119.93C120.092 18.3342 120.239 18.4808 120.239 18.6417V27.7213H124.376C124.557 27.7213 124.685 27.8679 124.685 28.0288V29.3583C124.685 29.5192 124.557 29.6659 124.376 29.6659H118.435C118.255 29.6659 118.127 29.5192 118.127 29.3583V18.6417Z" fill="#07485A"/>
<path id="Vector_13" d="M126.146 28.0761L126.73 27.073C126.858 26.8459 127.133 26.8459 127.28 26.9595C127.361 27.0068 128.676 27.9625 129.734 27.9625C130.578 27.9625 131.209 27.4137 131.209 26.7182C131.209 25.8949 130.512 25.3271 129.15 24.7736C127.622 24.1585 126.099 23.1886 126.099 21.2771C126.099 19.834 127.171 18.1685 129.753 18.1685C131.409 18.1685 132.676 19.0107 132.998 19.252C133.16 19.3514 133.212 19.6258 133.098 19.7867L132.481 20.7093C132.353 20.9033 132.106 21.031 131.912 20.9033C131.784 20.8229 130.55 20.0138 129.658 20.0138C128.766 20.0138 128.23 20.6289 128.23 21.1446C128.23 21.9063 128.832 22.4221 130.147 22.9567C131.722 23.586 133.539 24.5275 133.539 26.6141C133.539 28.2795 132.097 29.8172 129.805 29.8172C127.76 29.8172 126.559 28.8615 126.237 28.554C126.089 28.4073 126.009 28.3269 126.156 28.0666" fill="#07485A"/>
<path id="Vector_14" d="M56.5961 33.82C56.5961 33.6592 56.7243 33.5125 56.9046 33.5125H63.5099C63.6902 33.5125 63.8183 33.6592 63.8183 33.82V35.1495C63.8183 35.3104 63.6902 35.4571 63.5099 35.4571H58.7077V38.4994H62.7174C62.8788 38.4994 63.0259 38.646 63.0259 38.8069V40.1317C63.0259 40.2926 62.8788 40.4392 62.7174 40.4392H58.7077V44.5366C58.7077 44.6975 58.5606 44.8442 58.3993 44.8442H56.9046C56.7243 44.8442 56.5961 44.6975 56.5961 44.5366V33.82Z" fill="#07485A"/>
<path id="Vector_15" d="M71.254 33.3469C74.4997 33.3469 77.0954 35.9539 77.0954 39.1901C77.0954 42.4264 74.4997 45.0003 71.254 45.0003C68.0083 45.0003 65.4269 42.4264 65.4269 39.1901C65.4269 35.9539 68.0083 33.3469 71.254 33.3469ZM71.254 42.8995C73.2992 42.8995 74.9885 41.2341 74.9885 39.1949C74.9885 37.1556 73.2992 35.4571 71.254 35.4571C69.2089 35.4571 67.5386 37.1556 67.5386 39.1949C67.5386 41.2341 69.2089 42.8995 71.254 42.8995Z" fill="#07485A"/>
<path id="Vector_16" d="M79.7099 33.82C79.7099 33.6592 79.8381 33.5125 80.0184 33.5125H84.6592C86.6094 33.5125 88.1991 35.0644 88.1991 36.9948C88.1991 38.4852 87.2073 39.6964 85.798 40.2642L88.0188 44.3758C88.1327 44.5887 88.0188 44.8442 87.7435 44.8442H86.04C85.8929 44.8442 85.8123 44.7637 85.779 44.6975L83.62 40.4061H81.8168V44.5366C81.8168 44.6975 81.6697 44.8442 81.5084 44.8442H80.0136C79.8333 44.8442 79.7052 44.6975 79.7052 44.5366V33.82H79.7099ZM84.4836 38.6744C85.3425 38.6744 86.0922 37.9316 86.0922 37.0232C86.0922 36.1668 85.3472 35.4524 84.4836 35.4524H81.8358V38.6744H84.4836Z" fill="#07485A"/>
<path id="Vector_17" d="M90.8469 33.82C90.8469 33.6592 90.994 33.5125 91.1554 33.5125H92.6975C92.8779 33.5125 93.006 33.6592 93.006 33.82V40.4392C93.006 41.8161 93.9455 42.8996 95.3596 42.8996C96.7737 42.8996 97.7274 41.8161 97.7274 40.4534V33.8153C97.7274 33.6544 97.8556 33.5078 98.0359 33.5078H99.5781C99.7394 33.5078 99.8865 33.6544 99.8865 33.8153V40.5481C99.8865 43.0084 97.922 45.0003 95.3596 45.0003C92.7972 45.0003 90.8469 43.0084 90.8469 40.5481V33.8153V33.82Z" fill="#07485A"/>
<path id="Vector_18" d="M104.352 33.5929C104.366 33.4651 104.466 33.3516 104.646 33.3516H104.907C105.035 33.3516 105.135 33.4178 105.182 33.5125L108.755 41.1537H108.803L112.376 33.5125C112.423 33.4131 112.504 33.3516 112.651 33.3516H112.912C113.092 33.3516 113.187 33.4651 113.206 33.5929L115.123 44.4704C115.171 44.6975 115.043 44.8442 114.829 44.8442H113.353C113.206 44.8442 113.078 44.7164 113.045 44.6028L112.086 38.4662H112.039L109.197 44.83C109.163 44.9293 109.068 45.0098 108.921 45.0098H108.627C108.48 45.0098 108.399 44.9293 108.352 44.83L105.481 38.4662H105.434L104.494 44.6028C104.48 44.7164 104.347 44.8442 104.205 44.8442H102.743C102.53 44.8442 102.401 44.6975 102.435 44.4704L104.366 33.5929H104.352Z" fill="#07485A"/>
<path id="Vector_19" d="M20.1009 4.41912C20.1009 1.97772 22.0844 0 24.5282 0C26.9719 0 28.9602 1.97772 28.9602 4.41912C28.9602 6.86052 26.9767 8.83825 24.5282 8.83825C22.0796 8.83825 20.1009 6.86052 20.1009 4.41912Z" fill="#07485A"/>
<path id="Vector_20" d="M33.2688 5.35595C31.5842 6.0562 31.1524 6.94097 29.5059 8.73416C28.4382 9.89809 26.9909 10.8444 25.4392 10.9627C25.4392 10.9627 24.8129 11.0052 24.5756 11.01C24.5614 11.01 24.5282 11.01 24.5282 11.01C24.5282 11.01 24.4949 11.01 24.4807 11.01C24.2434 11.01 23.6171 10.9627 23.6171 10.9627C22.0654 10.8396 20.6181 9.89336 19.5505 8.73416C17.9039 6.94097 17.4721 6.0562 15.7875 5.35595C14.103 4.6557 11.83 5.18562 9.89874 6.74698C11.6118 8.43609 18.051 16.7728 24.4902 16.7728H24.5139C24.5187 16.7728 24.5234 16.7728 24.5282 16.7728C24.5329 16.7728 24.5376 16.7728 24.5424 16.7728H24.5661C31.0053 16.7728 37.4446 8.43609 39.1576 6.74698C37.2215 5.18089 34.9533 4.65097 33.2688 5.35595Z" fill="#07485A"/>
<path id="Vector_21" d="M28.9602 43.5809C28.9602 46.0223 26.9767 48 24.5329 48C22.0891 48 20.1009 46.0223 20.1009 43.5809C20.1009 41.1395 22.0844 39.1617 24.5329 39.1617C26.9814 39.1617 28.9602 41.1395 28.9602 43.5809Z" fill="#07485A"/>
<path id="Vector_22" d="M15.7875 42.6441C17.4721 41.9438 17.9039 41.059 19.5505 39.2658C20.6181 38.1019 22.0654 37.1556 23.6171 37.0374C23.6171 37.0374 24.2434 36.9948 24.4807 36.99C24.4949 36.99 24.5282 36.99 24.5282 36.99C24.5282 36.99 24.5614 36.99 24.5756 36.99C24.8129 36.99 25.4392 37.0374 25.4392 37.0374C26.9909 37.1604 28.4382 38.1066 29.5059 39.2658C31.1524 41.059 31.5842 41.9438 33.2688 42.6441C34.9533 43.3443 37.2263 42.8144 39.1576 41.253C37.4446 39.5639 31.0053 31.2272 24.5661 31.2272H24.5424C24.5376 31.2272 24.5329 31.2272 24.5282 31.2272C24.5234 31.2272 24.5187 31.2272 24.5139 31.2272H24.4902C18.051 31.2272 11.6118 39.5639 9.89874 41.253C11.83 42.8191 14.103 43.349 15.7875 42.6441Z" fill="#07485A"/>
<path id="Vector_23" d="M4.89259 28.4168C2.44408 28.4168 0.465332 26.439 0.465332 23.9976C0.465332 21.5562 2.44882 19.5785 4.89259 19.5785C7.33636 19.5785 9.31985 21.5562 9.31985 23.9976C9.31985 26.439 7.33636 28.4168 4.89259 28.4168Z" fill="#07485A"/>
<path id="Vector_24" d="M5.83211 15.2824C6.5344 16.962 7.42175 17.3926 9.22018 19.0344C10.3875 20.099 11.3365 21.542 11.4552 23.0892C11.4552 23.0892 11.4979 23.7137 11.5026 23.9503C11.5026 23.9645 11.5026 23.9976 11.5026 23.9976C11.5026 23.9976 11.5026 24.0355 11.5026 24.0449C11.5026 24.2815 11.4552 24.9061 11.4552 24.9061C11.3318 26.4532 10.3827 27.8963 9.22018 28.9609C7.42175 30.6026 6.5344 31.0332 5.83211 32.7176C5.12982 34.3972 5.66128 36.6636 7.2272 38.594C8.92123 36.8859 17.2822 30.4654 17.2822 24.0449V24.0213C17.2822 24.0166 17.2822 24.0118 17.2822 24.0071C17.2822 24.0071 17.2822 23.9929 17.2822 23.9882V23.9645C17.2822 17.544 8.92123 11.1235 7.2272 9.41547C5.66128 11.3459 5.12982 13.6122 5.83211 15.2919" fill="#07485A"/>
<path id="Vector_25" d="M44.1638 19.5833C46.6123 19.5833 48.5958 21.561 48.5958 24.0024C48.5958 26.4438 46.6123 28.4215 44.1638 28.4215C41.7152 28.4215 39.7318 26.4438 39.7318 24.0024C39.7318 21.561 41.7152 19.5833 44.1638 19.5833Z" fill="#07485A"/>
<path id="Vector_26" d="M43.2242 32.7176C42.522 31.0379 41.6346 30.6074 39.8362 28.9656C38.6689 27.901 37.7198 26.458 37.6012 24.9108C37.6012 24.9108 37.5585 24.2862 37.5537 24.0497C37.5537 24.0355 37.5537 24.0024 37.5537 24.0024C37.5537 24.0024 37.5537 23.9645 37.5537 23.955C37.5537 23.7185 37.6012 23.0939 37.6012 23.0939C37.7246 21.5468 38.6736 20.1037 39.8362 19.0391C41.6346 17.3973 42.522 16.9668 43.2242 15.2824C43.9265 13.6028 43.3951 11.3364 41.8292 9.40601C40.1351 11.114 31.7741 17.5345 31.7741 23.955V23.9787C31.7741 23.9834 31.7741 23.9882 31.7741 23.9929C31.7741 23.9929 31.7741 24.0071 31.7741 24.0118V24.0355C31.7741 30.456 40.1351 36.8765 41.8292 38.5845C43.3951 36.6541 43.9265 34.3878 43.2242 32.7081" fill="#07485A"/>
</g>
</g>
</svg>
